<?xml version="1.0" encoding="UTF-8"?>
<svg version="1.1" xmlns="http://www.w3.org/2000/svg" width="512" height="512">
<path d="M0 0 C7.04087096 0.06560003 13.79677026 0.78606741 20.7434845 1.90574646 C22.43093781 2.16854904 22.43093781 2.16854904 24.15248108 2.43666077 C27.81344794 3.01106346 31.47191932 3.59966821 35.13020325 4.19090271 C37.01810074 4.49276993 37.01810074 4.49276993 38.94413757 4.80073547 C129.78044342 19.35560282 222.50961597 43.87530093 300.5259552 94.77293396 C301.29641174 95.25891052 302.06686829 95.74488708 302.860672 96.24559021 C303.5312262 96.68242126 304.2017804 97.11925232 304.89265442 97.56932068 C306.85367967 98.49492949 306.85367967 98.49492949 308.95491028 97.48777771 C311.17102347 96.01927597 312.72259333 94.35265224 314.50520325 92.37840271 C343.19839642 63.21865355 399.21128831 37.46312383 440.06770325 35.94090271 C444.68065205 36.05108461 447.82444977 36.92400485 451.81770325 39.25340271 C454.18419299 42.03145589 454.23346436 45.2235026 454.13386536 48.80906677 C452.89235832 58.40749804 448.62034917 67.47312718 444.38020325 76.06590271 C443.59359314 77.67694885 443.59359314 77.67694885 442.79109192 79.32054138 C432.82480966 99.54740628 421.59402554 118.90150413 409.77131653 138.0790863 C408.00435946 140.95011552 406.24919502 143.82777492 404.501297 146.71043396 C400.08530071 153.9906834 395.66986716 161.25154593 390.81770325 168.25340271 C392.11584317 171.02747872 393.55158346 173.34628842 395.470047 175.72996521 C403.44309967 185.7980908 410.44092901 196.10767339 416.81770325 207.25340271 C417.21441223 207.9383783 417.61112122 208.62335388 418.01985168 209.3290863 C434.81770325 238.59508335 434.81770325 238.59508335 434.81770325 249.25340271 C435.67106262 249.43773865 436.524422 249.62207458 437.40364075 249.81199646 C458.33180598 254.66646778 485.67871335 261.15049611 501.81770325 276.25340271 C502.41196106 276.7728949 503.00621887 277.29238708 503.6184845 277.82762146 C506.93715366 281.10051588 508.24474513 283.62061712 508.50520325 288.31590271 C508.22140543 292.21812265 507.49450983 295.09728094 504.59895325 297.95262146 C487.81555239 310.20892077 459.90915227 311.99753045 439.81770325 311.25340271 C439.81770325 315.87340271 439.81770325 320.49340271 439.81770325 325.25340271 C441.46770325 325.58340271 443.11770325 325.91340271 444.81770325 326.25340271 C444.20579955 356.23668397 431.2965063 383.95529922 411.81770325 406.25340271 C411.39231262 406.74582458 410.966922 407.23824646 410.52864075 407.74559021 C404.21216936 415.02246075 397.52763242 421.43497616 389.81770325 427.25340271 C389.29337708 427.65268982 388.7690509 428.05197693 388.22883606 428.46336365 C379.22438476 435.27653678 369.82271211 441.032917 359.81770325 446.25340271 C359.06730774 446.65027283 358.31691223 447.04714294 357.54377747 447.45603943 C343.95989996 454.55638261 329.88232668 459.48529161 315.32551575 464.12449646 C305.2150406 467.22259036 305.2150406 467.22259036 297.31770325 474.00340271 C296.54813293 474.89543396 295.77856262 475.78746521 294.985672 476.70652771 C294.27024231 477.54699646 293.55481262 478.38746521 292.81770325 479.25340271 C279.29318781 494.6177687 259.2925044 504.82599911 239.81770325 510.25340271 C238.56860168 510.62078552 238.56860168 510.62078552 237.29426575 510.99559021 C231.6871738 512.39257899 226.0665523 512.45097131 220.31770325 512.50340271 C219.51485901 512.51282898 218.71201477 512.52225525 217.88484192 512.53196716 C212.06331448 512.49901395 212.06331448 512.49901395 209.81770325 510.25340271 C209.25520325 507.56590271 209.25520325 507.56590271 209.81770325 504.25340271 C211.30288169 502.4387003 212.96756657 500.93191301 214.688797 499.33934021 C226.122472 488.13643663 234.92342364 471.90907069 235.25520325 455.69090271 C234.65935948 426.14959569 209.55340491 397.56281976 191.9622345 375.69871521 C191.53321838 375.1545697 191.10420227 374.61042419 190.66218567 374.04978943 C189.52990049 372.61397475 188.38147451 371.190929 187.23176575 369.76902771 C185.81770325 367.25340271 185.81770325 367.25340271 185.96614075 364.55027771 C186.81770325 362.25340271 186.81770325 362.25340271 188.81770325 360.25340271 C209.57419433 356.64722446 234.90944544 368.9718456 251.48860168 380.40574646 C270.36629196 393.91353657 285.42093101 410.57164933 298.58772278 429.58030701 C299.85219893 431.38849098 299.85219893 431.38849098 301.81770325 433.25340271 C319.15570943 418.15451077 339.05452613 397.3030249 341.0716095 373.22215271 C341.56485516 359.60220793 336.37186965 351.39276254 327.41145325 341.63230896 C320.44455289 334.40927256 312.83637105 328.26526182 304.81770325 322.25340271 C304.2247345 321.80497009 303.63176575 321.35653748 303.02082825 320.89451599 C290.39723593 311.36850625 277.26649179 302.56967128 263.81770325 294.25340271 C263.59856262 294.9172699 263.379422 295.58113708 263.15364075 296.26512146 C260.59418411 303.39206372 257.95898052 307.14595444 251.20832825 310.58128357 C242.41014132 314.72427499 233.48015238 318.01735672 224.25520325 321.06590271 C223.48568329 321.32186218 222.71616333 321.57782166 221.92332458 321.84153748 C142.68756731 348.06240644 142.68756731 348.06240644 117.81770325 339.25340271 C114.51664393 337.18214981 113.19934756 335.90520699 112.31770325 332.08934021 C111.53426882 321.80676341 117.82634499 314.13280648 124.13020325 306.69090271 C125.56848593 305.03531166 127.01856418 303.39157607 128.47883606 301.75535583 C129.65361388 300.43747962 130.81131704 299.10442385 131.96614075 297.76902771 C136.72964343 292.33023921 141.78216921 287.18857343 146.88020325 282.06590271 C147.54108948 281.40034363 148.20197571 280.73478455 148.88288879 280.04905701 C152.75526777 276.18915564 156.73542327 272.51531943 160.87409973 268.94309998 C163.91548279 266.29903363 166.86527937 263.55842232 169.81770325 260.81590271 C170.69362122 260.00476013 170.69362122 260.00476013 171.5872345 259.17723083 C172.99829562 257.87026439 174.40813573 256.56197987 175.81770325 255.25340271 C178.81770325 256.25340271 178.81770325 256.25340271 180.81770325 258.25340271 C181.96696591 257.29918463 183.11200866 256.33988226 184.25520325 255.37840271 C184.89328918 254.84473083 185.53137512 254.31105896 186.188797 253.76121521 C187.92575329 252.33112701 187.92575329 252.33112701 188.81770325 250.25340271 C188.16003967 250.00751404 187.5023761 249.76162537 186.82478333 249.50828552 C183.01461712 247.91826731 179.3778784 246.05598585 175.704422 244.17527771 C174.06280091 243.34142307 172.42086018 242.50819747 170.77864075 241.67552185 C169.91851379 241.23918427 169.05838684 240.80284668 168.17219543 240.35328674 C154.35868201 233.36164976 140.49630376 226.53862271 126.31770325 220.31590271 C125.69108795 220.03766663 125.06447266 219.75943054 124.41886902 219.47276306 C108.16769505 212.28323918 91.78311267 208.18097217 74.42585754 204.69847107 C64.48149488 202.69054157 55.50719525 200.73676516 46.75520325 195.37840271 C43.99704273 190.92975672 44.81877409 187.17526303 45.0403595 182.04637146 C44.7221061 176.62489701 42.65380114 172.63552167 40.13020325 167.89793396 C38.81770325 165.25340271 38.81770325 165.25340271 38.81770325 162.25340271 C43.76770325 160.27340271 43.76770325 160.27340271 48.81770325 158.25340271 C52.81770325 165.87840271 52.81770325 165.87840271 52.81770325 169.25340271 C53.43258606 168.89246521 54.04746887 168.53152771 54.6809845 168.15965271 C55.48922668 167.69559021 56.29746887 167.23152771 57.13020325 166.75340271 C57.93071106 166.28934021 58.73121887 165.82527771 59.5559845 165.34715271 C61.81770325 164.25340271 61.81770325 164.25340271 64.81770325 164.25340271 C64.66172668 163.58953552 64.50575012 162.92566833 64.345047 162.24168396 C64.15039856 161.35867615 63.95575012 160.47566833 63.75520325 159.56590271 C63.55797668 158.69578552 63.36075012 157.82566833 63.157547 156.92918396 C62.79738046 154.09338995 63.10860356 152.00550289 63.81770325 149.25340271 C67.11770325 148.92340271 70.41770325 148.59340271 73.81770325 148.25340271 C74.95534676 152.51956587 75.81770325 155.81826582 75.81770325 160.25340271 C76.47770325 160.08840271 77.13770325 159.92340271 77.81770325 159.75340271 C81.54870119 159.13156972 85.03643703 159.18931345 88.81770325 159.25340271 C88.81770325 155.29340271 88.81770325 151.33340271 88.81770325 147.25340271 C92.11770325 147.25340271 95.41770325 147.25340271 98.81770325 147.25340271 C98.81770325 150.88340271 98.81770325 154.51340271 98.81770325 158.25340271 C103.10770325 158.25340271 107.39770325 158.25340271 111.81770325 158.25340271 C112.14770325 155.94340271 112.47770325 153.63340271 112.81770325 151.25340271 C116.11770325 151.25340271 119.41770325 151.25340271 122.81770325 151.25340271 C123.14770325 153.89340271 123.47770325 156.53340271 123.81770325 159.25340271 C134.21270325 160.73840271 134.21270325 160.73840271 144.81770325 162.25340271 C141.08735632 152.83427673 137.24649504 145.18053841 130.81770325 137.25340271 C129.93985168 136.16478943 129.93985168 136.16478943 129.04426575 135.05418396 C126.33251397 131.67848932 126.33251397 131.67848932 122.81770325 129.25340271 C122.44645325 130.42902771 122.44645325 130.42902771 122.06770325 131.62840271 C120.66381226 134.57657379 119.81094588 135.15588041 116.81770325 136.25340271 C113.35270325 133.77840271 113.35270325 133.77840271 109.81770325 131.25340271 C110.75182317 127.51692301 112.0451329 124.64440686 113.81770325 121.25340271 C112.71702329 120.43618554 111.61200594 119.6248082 110.50520325 118.81590271 C109.89032043 118.36344177 109.27543762 117.91098083 108.641922 117.44480896 C106.72093224 116.08003963 106.72093224 116.08003963 103.81770325 115.25340271 C103.41551575 116.55277771 103.41551575 116.55277771 103.00520325 117.87840271 C101.84658337 121.17132235 100.43560486 124.16468146 98.81770325 127.25340271 C95.33099491 126.14399551 92.04286088 124.99002605 88.81770325 123.25340271 C89.42125733 119.40314392 90.58542928 116.39239112 92.38020325 112.94090271 C92.83524231 112.0578949 93.29028137 111.17488708 93.7591095 110.26512146 C94.10844543 109.60125427 94.45778137 108.93738708 94.81770325 108.25340271 C93.97207825 107.98527771 93.12645325 107.71715271 92.25520325 107.44090271 C88.67916257 106.20554321 85.27909416 104.77641471 81.81770325 103.25340271 C81.73520325 103.91340271 81.65270325 104.57340271 81.56770325 105.25340271 C80.57010534 109.24379434 78.74603642 112.63889914 76.81770325 116.25340271 C73.25990129 115.6434938 70.13484435 114.67503461 66.81770325 113.25340271 C67.4492732 108.20084307 68.95229698 103.9574707 70.81770325 99.25340271 C66.85770325 97.93340271 62.89770325 96.61340271 58.81770325 95.25340271 C57.82770325 100.20340271 56.83770325 105.15340271 55.81770325 110.25340271 C54.37395325 110.10902771 52.93020325 109.96465271 51.44270325 109.81590271 C50.22453918 109.6940863 50.22453918 109.6940863 48.98176575 109.56980896 C46.81770325 109.25340271 46.81770325 109.25340271 44.81770325 108.25340271 C45.47770325 103.30340271 46.13770325 98.35340271 46.81770325 93.25340271 C43.84770325 92.92340271 40.87770325 92.59340271 37.81770325 92.25340271 C37.15770325 96.87340271 36.49770325 101.49340271 35.81770325 106.25340271 C32.10293948 107.4916573 29.62941511 106.95927528 25.81770325 106.25340271 C25.32270325 105.75840271 25.32270325 105.75840271 24.81770325 105.25340271 C25.08647278 103.42615662 25.08647278 103.42615662 25.360672 101.56199646 C26.89630021 91.44958075 26.89630021 91.44958075 23.56770325 82.10105896 C21.5461857 79.42189056 19.353098 76.89854703 17.16926575 74.35105896 C2.70837402 57.40276141 -4.36897382 32.84646835 -4.49479675 10.94090271 C-4.50035583 10.10977966 -4.50591492 9.27865662 -4.51164246 8.42234802 C-4.41528367 0.51269143 -4.41528367 0.51269143 0 0 Z " fill="#223863" transform="translate(4.1822967529296875,-0.2534027099609375)"/>
<path d="M0 0 C19.08815646 2.04612114 38.07157268 4.93753139 57 8.125 C57.96695801 8.28339355 58.93391602 8.44178711 59.93017578 8.60498047 C60.81946777 8.75854004 61.70875977 8.91209961 62.625 9.0703125 C63.78902344 9.26778076 63.78902344 9.26778076 64.9765625 9.46923828 C67 10 67 10 70 12 C68.8553125 13.051875 68.8553125 13.051875 67.6875 14.125 C63.85499829 18.22488555 61.85606241 21.68588714 61.5625 27.3125 C61.79721076 33.11181159 63.44104936 38.5573653 67.71875 42.640625 C73.34711367 46.79035076 78.20646914 47.77029011 85 47 C90.63423361 45.34657259 94.92096358 43.17278119 98 38 C100.76301837 31.92135958 100.7824932 25.78763202 99 19.4375 C98.505 18.2309375 98.505 18.2309375 98 17 C180.58106543 23.00589567 283.54194872 78.3922681 344 132 C344.96808594 132.85722656 345.93617188 133.71445313 346.93359375 134.59765625 C352.73443272 139.82842605 358.33774411 145.2413077 363.875 150.75 C364.49358887 151.36391602 365.11217773 151.97783203 365.74951172 152.61035156 C366.94444893 153.80949061 368.12626858 155.02185862 369.29394531 156.24755859 C370.96219505 158.01137109 370.96219505 158.01137109 372.76074219 159.52197266 C376.63046394 163.18255115 377.41205903 166.0573651 377.65625 171.3671875 C377.63765906 173.87026454 377.58372388 176.37325449 377.5 178.875 C377.47736084 180.19169678 377.45472168 181.50839355 377.43139648 182.86499023 C376.85711742 211.56661433 376.85711742 211.56661433 374 225 C368.25124635 225.12928597 362.90197958 224.68091151 357.234375 223.7578125 C355.53538511 223.49452755 353.83632632 223.23168685 352.13720703 222.96923828 C351.25728088 222.83132874 350.37735474 222.69341919 349.47076416 222.55133057 C333.03285494 219.90032161 333.03285494 219.90032161 316.4609375 218.4375 C315.20571289 218.37675293 313.95048828 218.31600586 312.65722656 218.25341797 C310.38673825 218.17087188 308.11473762 218.12034095 305.84277344 218.10986328 C295.42899854 217.76537468 289.0471008 212.25910499 282 205 C282.51949219 203.99324219 283.03898437 202.98648438 283.57421875 201.94921875 C292.0889558 184.9851326 295.76655201 168.95173193 296 150 C292.7 150 289.4 150 286 150 C286.05800781 150.93457031 286.11601562 151.86914062 286.17578125 152.83203125 C286.75464862 169.68534127 282.26893458 184.39234323 274 199 C269.27740792 199 266.65777319 197.35101802 262.75 195 C262.1003125 194.6184375 261.450625 194.236875 260.78125 193.84375 C259.18292899 192.90356117 257.59083547 191.95279986 256 191 C257.52644835 186.98461369 259.39233268 183.21533464 261.3125 179.375 C268.41986225 164.43055156 270.79752407 149.43736377 271 133 C267.7 133 264.4 133 261 133 C261.05800781 133.93457031 261.11601562 134.86914062 261.17578125 135.83203125 C261.76493731 152.9848891 257.26474361 169.4632684 248 184 C245 185 245 185 243.19067383 184.37915039 C242.53607178 184.03875732 241.88146973 183.69836426 241.20703125 183.34765625 C240.1387207 182.80141602 240.1387207 182.80141602 239.04882812 182.24414062 C238.31083984 181.85419922 237.57285156 181.46425781 236.8125 181.0625 C236.06291016 180.67642578 235.31332031 180.29035156 234.54101562 179.89257812 C232.68939311 178.93728243 230.84407548 177.96978423 229 177 C230.30720549 173.47854847 231.92641148 170.2387978 233.71655273 166.94018555 C242.33828845 150.75380857 245.95826667 134.25833095 246 116 C242.7 116 239.4 116 236 116 C236.08701172 117.40185547 236.08701172 117.40185547 236.17578125 118.83203125 C236.8040074 137.12238673 231.68104437 156.52566242 220 171 C200.76739769 163.90844201 188.15115373 152.04151667 177.32666016 135.03369141 C174.5363808 130.7563585 171.30644331 126.88200937 168 123 C167.08812944 121.90398867 166.17670412 120.80760681 165.265625 119.7109375 C155.44862196 107.98251667 145.07914527 97.42273573 133 88 C132.01644531 87.21109375 131.03289062 86.4221875 130.01953125 85.609375 C102.86188828 64.01486154 70.69657475 47.34258213 37 39 C37.33 38.4225 37.66 37.845 38 37.25 C39.27075898 34.80116138 39.27075898 34.80116138 39 31 C37.08333079 28.74934898 37.08333079 28.74934898 35 27 C31.9487786 28.17354669 30.37522812 29.68879743 28.3125 32.125 C26.50231329 33.99431341 25.49722562 34.89774039 22.9296875 35.42578125 C20.58016681 35.43806097 18.33381038 35.27075251 16 35 C15.14921875 34.91878906 14.2984375 34.83757813 13.421875 34.75390625 C11.27771835 34.53477074 9.13815562 34.27151182 7 34 C2.96517287 22.696324 0.92739253 11.95921119 0 0 Z " fill="#3178AE" transform="translate(10,11)"/>
<path d="M0 0 C38.59551576 -3.16356687 86.61811048 27.71229578 115 51 C117.6219803 53.27412842 120.19970494 55.58338148 122.75 57.9375 C124.72789558 59.75057094 126.75196817 61.47039014 128.8125 63.1875 C142.97953291 75.65448896 155.17652191 91.10832003 164.875 107.25 C171.02075295 117.08625472 180.25458103 122.19623867 190.08081055 127.87670898 C191.35178589 128.61256226 191.35178589 128.61256226 192.6484375 129.36328125 C193.41333496 129.79938721 194.17823242 130.23549316 194.96630859 130.68481445 C196.9292386 131.95423869 198.42235626 133.28466528 200 135 C199.01 136.65 198.02 138.3 197 140 C198.65 141.98 200.3 143.96 202 146 C202.44730469 145.55527344 202.89460937 145.11054688 203.35546875 144.65234375 C203.96003906 144.08644531 204.56460938 143.52054688 205.1875 142.9375 C206.07501953 142.08478516 206.07501953 142.08478516 206.98046875 141.21484375 C209 140 209 140 211.3125 140.09375 C214.7107881 141.23968436 217.67829381 142.82127434 220.8125 144.5625 C221.40998047 144.89185547 222.00746094 145.22121094 222.62304688 145.56054688 C224.08533998 146.36773267 225.5431399 147.18304917 227 148 C225.47639094 151.10021321 223.80178638 154.05162229 222 157 C223.65 158.98 225.3 160.96 227 163 C228.12894876 162.06725891 229.25300876 161.12859878 230.375 160.1875 C231.00148437 159.66542969 231.62796875 159.14335937 232.2734375 158.60546875 C234.2221048 156.91774261 234.2221048 156.91774261 236 154 C240.2002771 154.90523213 243.57966461 156.90282094 247.25 159.0625 C248.22453125 159.62807617 248.22453125 159.62807617 249.21875 160.20507812 C250.81505091 161.13234115 252.40787529 162.06558456 254 163 C251.89849845 166.58278917 249.65249689 169.79871065 247 173 C248.78831775 176.05763218 248.78831775 176.05763218 251 179 C254.16501729 179.3476073 254.16501729 179.3476073 256.26171875 176.8125 C257.06222656 175.884375 257.86273438 174.95625 258.6875 174 C259.89986328 172.6078125 259.89986328 172.6078125 261.13671875 171.1875 C262.05904297 170.1046875 262.05904297 170.1046875 263 169 C264.68913027 170.05990633 266.37621391 171.12307446 268.0625 172.1875 C269.00222656 172.77917969 269.94195312 173.37085938 270.91015625 173.98046875 C272.43962891 174.98013672 272.43962891 174.98013672 274 176 C274.58209229 176.37141113 275.16418457 176.74282227 275.76391602 177.12548828 C280.05318038 179.99040847 282.96769108 183.18842136 285.8125 187.5 C286.67251723 188.75004997 287.53454754 189.99871702 288.3984375 191.24609375 C288.82995117 191.87370605 289.26146484 192.50131836 289.70605469 193.14794922 C313.30859903 226.97756518 313.30859903 226.97756518 346.12109375 249.79296875 C349.04699104 251.67259923 349.81543205 254.2358214 351.1875 257.375 C351.69667969 258.51710938 352.20585937 259.65921875 352.73046875 260.8359375 C355.03889437 266.58924444 355.18300042 271.54557254 355.1875 277.6875 C355.19974609 278.54794922 355.21199219 279.40839844 355.22460938 280.29492188 C355.2734035 301.87818816 343.47690853 323.14179376 328.69921875 338.37109375 C327.85810547 339.17740234 327.85810547 339.17740234 327 340 C327.18175781 339.46632813 327.36351562 338.93265625 327.55078125 338.3828125 C328.08623223 336.79568087 328.61279173 335.20553531 329.1328125 333.61328125 C329.68299214 331.95530747 330.25832921 330.30530387 330.8671875 328.66796875 C334.88351056 317.13538396 333.98808238 305.09394232 329 294 C326.62146281 290.06844829 323.93418009 286.53096248 321 283 C320.40832031 282.26910156 319.81664062 281.53820312 319.20703125 280.78515625 C315.20552373 276.01448024 310.80271848 271.94890186 306 268 C305.49500977 267.58266602 304.99001953 267.16533203 304.46972656 266.73535156 C289.0711737 254.05682198 272.88460564 242.60559747 256 232 C254.81180664 231.25049072 254.81180664 231.25049072 253.59960938 230.48583984 C220.94673986 209.9273371 187.20293739 191.39053989 152.81634521 173.92443848 C150.17229542 172.57873539 147.53385934 171.22212245 144.89453125 169.8671875 C128.21977107 161.35694307 111.18355263 153.51833884 93.625 147 C92.54859253 146.60022949 92.54859253 146.60022949 91.45043945 146.19238281 C81.67604292 142.67691997 71.68931263 140.43784473 61.5 138.5 C53.55654535 136.98928163 45.77055351 135.24551248 38 133 C36.8203125 128.375 36.8203125 128.375 38.4375 125 C45.23602801 117.0407477 54.81409471 114.13157323 65 113 C82.55095111 112.0896458 101.02908223 111.83370295 118.25 115.5625 C124.14934423 116.76916776 129.97028335 117.710987 136 117 C137.55729746 115.44270254 137.28292595 113.98332279 137.375 111.8125 C137.1653414 95.48242422 126.36692187 80.73296032 116 69 C115.20722656 68.08154297 115.20722656 68.08154297 114.3984375 67.14453125 C104.95910906 56.95489721 92.18953012 49.3954037 80 43 C78.91203125 42.41734375 77.8240625 41.8346875 76.703125 41.234375 C62.02922863 33.86422796 45.76640897 28.68564836 29.48217773 26.68383789 C15.76388964 24.97564991 15.76388964 24.97564991 11.16552734 19.59155273 C9.1897211 16.82974484 7.59723782 14.00212011 6 11 C4.79427607 9.08169076 3.5862506 7.16482441 2.375 5.25 C0 1.18232044 0 1.18232044 0 0 Z " fill="#9BD1FA" transform="translate(23,56)"/>
<path d="M0 0 C30.195 0.495 30.195 0.495 61 1 C61 5.95 61 10.9 61 16 C59.02 16 57.04 16 55 16 C55.061875 17.010625 55.12375 18.02125 55.1875 19.0625 C55.02919342 49.19351811 37.52597228 77.68727423 16.84863281 98.23339844 C2.40389291 112.03716732 -14.89448418 122.72428463 -33 131 C-34.05380859 131.48847412 -34.05380859 131.48847412 -35.12890625 131.98681641 C-48.1524601 137.95982825 -61.60330953 142.17188693 -75.34716797 146.16552734 C-80.90207533 147.91287442 -83.58714621 149.26492572 -87.125 154 C-101.09736742 171.62632534 -122.50898531 186.0442939 -145 190 C-146.6661984 190.0395054 -148.33409262 190.05030271 -150 190 C-146.3806048 183.59645464 -146.3806048 183.59645464 -144.57421875 180.765625 C-140.39596845 174.15815941 -137.53241324 167.38700163 -135 160 C-134.75121094 159.30261719 -134.50242188 158.60523438 -134.24609375 157.88671875 C-128.63574753 139.56481885 -137.3394008 121.60129154 -145.57617188 105.65185547 C-152.15204079 93.40441237 -160.15579557 82.11216053 -168.54394531 71.05224609 C-169.11081055 70.30281738 -169.67767578 69.55338867 -170.26171875 68.78125 C-170.76662842 68.12189453 -171.27153809 67.46253906 -171.79174805 66.78320312 C-173 65 -173 65 -174 62 C-149.56658249 64.96068197 -130.31117887 79.51086035 -113 96 C-111.86304688 97.04027344 -111.86304688 97.04027344 -110.703125 98.1015625 C-99.97024161 108.24687928 -91.39833435 120.72161283 -84 133.4375 C-82.21896372 136.10175699 -82.21896372 136.10175699 -79.66796875 137.15234375 C-75.74370211 136.9282641 -73.31571494 134.88756963 -70.3125 132.5625 C-69.38667114 131.87124023 -69.38667114 131.87124023 -68.44213867 131.16601562 C-66.61512219 129.79343954 -64.80595132 128.40012532 -63 127 C-61.63875 125.96166016 -61.63875 125.96166016 -60.25 124.90234375 C-54.7942999 120.6444496 -49.67412395 116.05927217 -44.58984375 111.3671875 C-42.41139433 109.37602558 -40.19546557 107.46155354 -37.9375 105.5625 C-18.77608498 88.77197001 1.47257135 61.82648912 4.35644531 35.78076172 C4.57248637 32.36800353 4.66762273 28.98188171 4.6875 25.5625 C4.69467041 24.50949707 4.70184082 23.45649414 4.70922852 22.37158203 C4.51241076 13.90908139 2.63902645 8.57683596 0 0 Z " fill="#265D86" transform="translate(383,310)"/>
<path d="M0 0 C1.75570312 0.01353516 1.75570312 0.01353516 3.546875 0.02734375 C4.43890625 0.03894531 5.3309375 0.05054688 6.25 0.0625 C3.6597569 22.82785877 -12.34409748 45.52044786 -23.79638672 64.76269531 C-25.89505464 68.30750857 -27.96800932 71.86644525 -30.03515625 75.4296875 C-37.63421071 88.51336683 -45.32390072 101.48704729 -53.75 114.0625 C-58.42263615 110.17704474 -62.77057965 106.10945533 -67 101.75 C-71.75332282 96.92693625 -76.64841645 92.49630713 -81.96484375 88.2890625 C-84.44113158 86.30942146 -86.84133308 84.26309407 -89.23266602 82.18237305 C-95.75396735 76.52775679 -102.59543447 71.43759842 -109.65844727 66.47753906 C-113.32023175 63.89275002 -116.71804749 61.40006046 -119.75 58.0625 C-93.62158509 29.76675113 -39.13467625 -0.39134676 0 0 Z " fill="#3178AE" transform="translate(440.75,46.9375)"/>
<path d="M0 0 C7.9109613 -0.15908338 15.6361987 0.27260193 23.5 1.125 C25.28688232 1.31860107 25.28688232 1.31860107 27.10986328 1.51611328 C49.38902277 4.07545711 71.59988119 8.04163401 93.37890625 13.37451172 C96.12030317 14.02870871 98.86984037 14.62924448 101.625 15.22265625 C128.07881461 21.0462484 161.52201733 28.605284 183 46 C183.69262695 48.15600586 183.69262695 48.15600586 184 50 C177.78369842 53.93754952 171.20585353 55.955139 164.125 57.6875 C163.33134033 57.88947998 162.53768066 58.09145996 161.7199707 58.29956055 C143.06982194 62.63701416 123.83554527 62.3217985 104.80664062 62.26074219 C101.19866684 62.24926227 97.59098804 62.25599312 93.9830246 62.26788712 C91.15512938 62.27517094 88.32730236 62.27278962 85.49940491 62.26763153 C83.53439129 62.26568986 81.56937479 62.27165486 79.60437012 62.27789307 C58.40526734 62.16797491 46.46185378 55.29204568 31.375 40.625 C27.45137857 36.60398372 23.89863191 32.34203989 20.390625 27.95703125 C18.23927829 25.29597004 16.0374365 22.69457628 13.80541992 20.10180664 C0 4.0390745 0 4.0390745 0 0 Z " fill="#9BD1FB" transform="translate(318,239)"/>
<path d="M0 0 C3.13108853 0.76009539 5.36267347 1.74108078 8.13623047 3.35498047 C9.06234131 3.88696045 9.98845215 4.41894043 10.94262695 4.96704102 C12.40744507 5.82616089 12.40744507 5.82616089 13.90185547 6.70263672 C15.97044597 7.8960732 18.03946113 9.08877388 20.10888672 10.28076172 C21.13191895 10.87308594 22.15495117 11.46541016 23.20898438 12.07568359 C26.57825065 14.00992307 29.9765757 15.88492527 33.38549805 17.74804688 C57.09271486 30.70599611 57.09271486 30.70599611 61.15185547 34.76513672 C61.56122288 39.98457119 61.29821782 43.50829354 58.15185547 47.76513672 C49.66856238 53.86310477 37.96241713 56.48880463 28.15185547 59.76513672 C27.19827148 60.0891748 26.2446875 60.41321289 25.26220703 60.74707031 C-4.51013216 70.83729796 -36.15911955 80.09629763 -67.84814453 78.76513672 C-68.84814453 75.76513672 -68.84814453 75.76513672 -67.80126953 73.48779297 C-63.57185229 66.88175365 -58.85196516 61.20311013 -53.47314453 55.53857422 C-51.35990956 53.30584085 -49.33658582 51.04479112 -47.34814453 48.70263672 C-41.1726495 41.59415323 -34.40001039 34.97481643 -27.23876953 28.86669922 C-21.30659552 23.65181422 -15.60487202 18.17218799 -9.84814453 12.76513672 C-10.50814453 11.11513672 -11.16814453 9.46513672 -11.84814453 7.76513672 C-10.49409359 6.39002276 -9.11390469 5.04061225 -7.72314453 3.70263672 C-6.57458984 2.57148438 -6.57458984 2.57148438 -5.40283203 1.41748047 C-2.84814453 -0.23486328 -2.84814453 -0.23486328 0 0 Z " fill="#9AD1FA" transform="translate(195.84814453125,251.23486328125)"/>
<path d="M0 0 C3.13108853 0.76009539 5.36267347 1.74108078 8.13623047 3.35498047 C9.06234131 3.88696045 9.98845215 4.41894043 10.94262695 4.96704102 C11.91917236 5.5397876 12.89571777 6.11253418 13.90185547 6.70263672 C15.97044597 7.8960732 18.03946113 9.08877388 20.10888672 10.28076172 C21.13191895 10.87308594 22.15495117 11.46541016 23.20898438 12.07568359 C26.57825065 14.00992307 29.9765757 15.88492527 33.38549805 17.74804688 C57.09271486 30.70599611 57.09271486 30.70599611 61.15185547 34.76513672 C61.56011406 39.97043373 61.2080825 43.46731746 58.15185547 47.76513672 C55.630236 50.09516255 53.55394734 51.22616125 50.15185547 51.76513672 C47.69726562 50.80322266 47.69726562 50.80322266 45.06591797 49.24951172 C44.09750977 48.68780273 43.12910156 48.12609375 42.13134766 47.54736328 C41.14811523 46.95922852 40.16488281 46.37109375 39.15185547 45.76513672 C37.33683716 44.71290527 35.52173392 43.66082031 33.70654297 42.60888672 C31.81275005 41.49526153 29.91954083 40.38064325 28.02685547 39.26513672 C18.11659937 33.4493584 8.13166366 27.78807476 -1.91308594 22.20849609 C-2.90872559 21.65484375 -3.90436523 21.10119141 -4.93017578 20.53076172 C-5.80907471 20.04381836 -6.68797363 19.556875 -7.59350586 19.05517578 C-9.38719796 18.02887702 -11.12867268 16.91145128 -12.84814453 15.76513672 C-11.85814453 14.77513672 -10.86814453 13.78513672 -9.84814453 12.76513672 C-10.50814453 11.11513672 -11.16814453 9.46513672 -11.84814453 7.76513672 C-10.49409359 6.39002276 -9.11390469 5.04061225 -7.72314453 3.70263672 C-6.95744141 2.94853516 -6.19173828 2.19443359 -5.40283203 1.41748047 C-2.84814453 -0.23486328 -2.84814453 -0.23486328 0 0 Z " fill="#68BBF9" transform="translate(195.84814453125,251.23486328125)"/>
<path d="M0 0 C18.36696969 18.11536736 32.50055448 43.39456847 40 68 C35.06070845 67.34547203 30.21259689 66.46854924 25.34375 65.40625 C24.63778687 65.25466431 23.93182373 65.10307861 23.20446777 64.94689941 C20.2164339 64.30522612 17.22961418 63.65798049 14.24267578 63.01123047 C12.0476148 62.5367909 9.85195146 62.06521503 7.65625 61.59375 C6.99250366 61.44893188 6.32875732 61.30411377 5.64489746 61.15490723 C1.4409487 60.25260016 -2.74105492 59.56437217 -7 59 C-5.02 58.505 -5.02 58.505 -3 58 C-1.59616547 38.66917808 -0.55567367 19.37629564 0 0 Z " fill="#265D86" transform="translate(387,178)"/>
<path d="M0 0 C3.95403662 0.26360244 5.65370756 0.86143155 8.75 3.25 C11.1934877 6.91523155 11.59707648 9.98970357 10.75 14.25 C8.3125 17.1875 8.3125 17.1875 5.75 19.25 C5.42 19.58 5.09 19.91 4.75 20.25 C-2.36943794 20.96194379 -2.36943794 20.96194379 -6.1875 17.875 C-9.38042265 13.81128027 -9.77903519 11.45217933 -9.25 6.25 C-6.8125 3.375 -6.8125 3.375 -4.25 1.25 C-3.25 0.25 -3.25 0.25 0 0 Z " fill="#265C85" transform="translate(90.25,28.75)"/>
</svg>
